<mxfile host="app.diagrams.net" agent="Mozilla/5.0 (Windows NT 10.0; Win64; x64) AppleWebKit/537.36 (KHTML, like Gecko) Chrome/136.0.0.0 Safari/537.36" version="27.1.3">
  <diagram name="Page-1" id="5aT7Tv9073EU9DidSebH">
    <mxGraphModel dx="580" dy="496" grid="1" gridSize="10" guides="1" tooltips="1" connect="1" arrows="1" fold="1" page="1" pageScale="1" pageWidth="827" pageHeight="1169" math="0" shadow="0">
      <root>
        <mxCell id="0" />
        <mxCell id="1" parent="0" />
        <mxCell id="01byhL8YH0Oe3F9d8_ii-6" value="Potvrde o unosu, pristup&lt;div&gt;podacima o korisnicima&amp;nbsp;&lt;/div&gt;&lt;div&gt;i terminima&lt;/div&gt;" style="edgeStyle=orthogonalEdgeStyle;rounded=0;orthogonalLoop=1;jettySize=auto;html=1;" edge="1" parent="1" source="01byhL8YH0Oe3F9d8_ii-1" target="01byhL8YH0Oe3F9d8_ii-3">
          <mxGeometry x="0.2308" y="-10" relative="1" as="geometry">
            <Array as="points">
              <mxPoint x="460" y="190" />
              <mxPoint x="460" y="190" />
            </Array>
            <mxPoint as="offset" />
          </mxGeometry>
        </mxCell>
        <mxCell id="01byhL8YH0Oe3F9d8_ii-1" value="P0&lt;div&gt;Informacijski sustav za sportski centar&lt;/div&gt;" style="rounded=1;whiteSpace=wrap;html=1;" vertex="1" parent="1">
          <mxGeometry x="360" y="240" width="120" height="60" as="geometry" />
        </mxCell>
        <mxCell id="01byhL8YH0Oe3F9d8_ii-2" value="ODRŽAVANJE&amp;nbsp;&lt;div&gt;SUSTAVA&lt;/div&gt;" style="rounded=0;whiteSpace=wrap;html=1;" vertex="1" parent="1">
          <mxGeometry x="360" y="430" width="120" height="60" as="geometry" />
        </mxCell>
        <mxCell id="01byhL8YH0Oe3F9d8_ii-7" value="Unos treninga,&amp;nbsp;&lt;span style=&quot;background-color: light-dark(#ffffff, var(--ge-dark-color, #121212)); color: light-dark(rgb(0, 0, 0), rgb(255, 255, 255));&quot;&gt;vođenje&amp;nbsp;&lt;/span&gt;&lt;div&gt;&lt;span style=&quot;background-color: light-dark(#ffffff, var(--ge-dark-color, #121212)); color: light-dark(rgb(0, 0, 0), rgb(255, 255, 255));&quot;&gt;evidencije dolazaka,&lt;/span&gt;&lt;div&gt;ažuriranje rasporeda&lt;/div&gt;&lt;/div&gt;" style="edgeStyle=orthogonalEdgeStyle;rounded=0;orthogonalLoop=1;jettySize=auto;html=1;" edge="1" parent="1" source="01byhL8YH0Oe3F9d8_ii-3" target="01byhL8YH0Oe3F9d8_ii-1">
          <mxGeometry x="0.3846" y="-10" relative="1" as="geometry">
            <Array as="points">
              <mxPoint x="390" y="190" />
              <mxPoint x="390" y="190" />
            </Array>
            <mxPoint as="offset" />
          </mxGeometry>
        </mxCell>
        <mxCell id="01byhL8YH0Oe3F9d8_ii-3" value="TRENER" style="rounded=0;whiteSpace=wrap;html=1;" vertex="1" parent="1">
          <mxGeometry x="360" y="50" width="120" height="60" as="geometry" />
        </mxCell>
        <mxCell id="01byhL8YH0Oe3F9d8_ii-11" value="Prijava na&amp;nbsp;&lt;span style=&quot;background-color: light-dark(#ffffff, var(--ge-dark-color, #121212)); color: light-dark(rgb(0, 0, 0), rgb(255, 255, 255));&quot;&gt;treninge,&amp;nbsp;&lt;/span&gt;&lt;span style=&quot;background-color: light-dark(#ffffff, var(--ge-dark-color, #121212)); color: light-dark(rgb(0, 0, 0), rgb(255, 255, 255));&quot;&gt;pregled&amp;nbsp;&lt;/span&gt;&lt;div&gt;&lt;span style=&quot;background-color: light-dark(#ffffff, var(--ge-dark-color, #121212)); color: light-dark(rgb(0, 0, 0), rgb(255, 255, 255));&quot;&gt;rasporeda, evidentiranje dolazaka&lt;/span&gt;&lt;/div&gt;" style="edgeStyle=orthogonalEdgeStyle;rounded=0;orthogonalLoop=1;jettySize=auto;html=1;" edge="1" parent="1" source="01byhL8YH0Oe3F9d8_ii-4">
          <mxGeometry relative="1" as="geometry">
            <mxPoint x="360" y="250" as="targetPoint" />
            <Array as="points">
              <mxPoint x="360" y="250" />
            </Array>
          </mxGeometry>
        </mxCell>
        <mxCell id="01byhL8YH0Oe3F9d8_ii-4" value="KORISNICI" style="rounded=0;whiteSpace=wrap;html=1;" vertex="1" parent="1">
          <mxGeometry y="240" width="120" height="60" as="geometry" />
        </mxCell>
        <mxCell id="01byhL8YH0Oe3F9d8_ii-5" value="ADMINISTRATOR" style="rounded=0;whiteSpace=wrap;html=1;" vertex="1" parent="1">
          <mxGeometry x="707" y="240" width="120" height="60" as="geometry" />
        </mxCell>
        <mxCell id="01byhL8YH0Oe3F9d8_ii-14" value="Prijava o potvrdi, prijava termina&lt;div&gt;&amp;nbsp;i povratne informacije&lt;/div&gt;" style="endArrow=classic;html=1;rounded=0;entryX=1;entryY=0.75;entryDx=0;entryDy=0;exitX=0;exitY=0.75;exitDx=0;exitDy=0;" edge="1" parent="1" source="01byhL8YH0Oe3F9d8_ii-1" target="01byhL8YH0Oe3F9d8_ii-4">
          <mxGeometry y="5" width="50" height="50" relative="1" as="geometry">
            <mxPoint x="360" y="280" as="sourcePoint" />
            <mxPoint x="410" y="230" as="targetPoint" />
            <mxPoint as="offset" />
          </mxGeometry>
        </mxCell>
        <mxCell id="01byhL8YH0Oe3F9d8_ii-19" value="Upravljanje korisnicima, ulogama&lt;div&gt;i pristupima, unos važnih obavijesti&lt;/div&gt;" style="endArrow=classic;html=1;rounded=0;exitX=1;exitY=0.25;exitDx=0;exitDy=0;entryX=0;entryY=0.25;entryDx=0;entryDy=0;" edge="1" parent="1" source="01byhL8YH0Oe3F9d8_ii-1" target="01byhL8YH0Oe3F9d8_ii-5">
          <mxGeometry x="-0.0308" y="5" width="50" height="50" relative="1" as="geometry">
            <mxPoint x="550" y="330" as="sourcePoint" />
            <mxPoint x="600" y="280" as="targetPoint" />
            <mxPoint as="offset" />
          </mxGeometry>
        </mxCell>
        <mxCell id="01byhL8YH0Oe3F9d8_ii-20" value="Potvrde o izvršenim promjenama,&lt;div&gt;nadzor sustava&lt;/div&gt;" style="endArrow=classic;html=1;rounded=0;exitX=0;exitY=0.75;exitDx=0;exitDy=0;entryX=1;entryY=0.75;entryDx=0;entryDy=0;" edge="1" parent="1" source="01byhL8YH0Oe3F9d8_ii-5" target="01byhL8YH0Oe3F9d8_ii-1">
          <mxGeometry x="0.0308" y="5" width="50" height="50" relative="1" as="geometry">
            <mxPoint x="550" y="330" as="sourcePoint" />
            <mxPoint x="600" y="280" as="targetPoint" />
            <mxPoint as="offset" />
          </mxGeometry>
        </mxCell>
        <mxCell id="01byhL8YH0Oe3F9d8_ii-23" value="Automatski backup baze,&lt;div&gt;status sustava&lt;/div&gt;" style="endArrow=classic;html=1;rounded=0;exitX=0.25;exitY=0;exitDx=0;exitDy=0;entryX=0.25;entryY=1;entryDx=0;entryDy=0;" edge="1" parent="1" source="01byhL8YH0Oe3F9d8_ii-2" target="01byhL8YH0Oe3F9d8_ii-1">
          <mxGeometry x="0.3846" y="20" width="50" height="50" relative="1" as="geometry">
            <mxPoint x="450" y="340" as="sourcePoint" />
            <mxPoint x="500" y="290" as="targetPoint" />
            <mxPoint as="offset" />
          </mxGeometry>
        </mxCell>
        <mxCell id="01byhL8YH0Oe3F9d8_ii-24" value="Ažuriranje softvera, otklanjanje&lt;div&gt;grešaka, nadzor sigurnosti&lt;/div&gt;" style="endArrow=classic;html=1;rounded=0;exitX=0.75;exitY=1;exitDx=0;exitDy=0;entryX=0.75;entryY=0;entryDx=0;entryDy=0;" edge="1" parent="1" source="01byhL8YH0Oe3F9d8_ii-1" target="01byhL8YH0Oe3F9d8_ii-2">
          <mxGeometry x="0.2308" y="30" width="50" height="50" relative="1" as="geometry">
            <mxPoint x="450" y="340" as="sourcePoint" />
            <mxPoint x="500" y="290" as="targetPoint" />
            <mxPoint as="offset" />
          </mxGeometry>
        </mxCell>
      </root>
    </mxGraphModel>
  </diagram>
</mxfile>
